<svg width="28" height="28" viewBox="0 0 28 28" fill="none" xmlns="http://www.w3.org/2000/svg">
<path d="M20.125 20.125H7.63636L4.58518 3.34348C4.54852 3.14187 4.44227 2.95952 4.28494 2.82822C4.12762 2.69692 3.92921 2.625 3.72429 2.625H1.75" stroke="#130F26" stroke-width="2" stroke-linecap="round" stroke-linejoin="round"/>
<path d="M8.75 24.5C9.95812 24.5 10.9375 23.5206 10.9375 22.3125C10.9375 21.1044 9.95812 20.125 8.75 20.125C7.54188 20.125 6.5625 21.1044 6.5625 22.3125C6.5625 23.5206 7.54188 24.5 8.75 24.5Z" stroke="#130F26" stroke-width="2" stroke-linecap="round" stroke-linejoin="round"/>
<path d="M20.125 24.5C21.3331 24.5 22.3125 23.5206 22.3125 22.3125C22.3125 21.1044 21.3331 20.125 20.125 20.125C18.9169 20.125 17.9375 21.1044 17.9375 22.3125C17.9375 23.5206 18.9169 24.5 20.125 24.5Z" stroke="#130F26" stroke-width="2" stroke-linecap="round" stroke-linejoin="round"/>
<path d="M6.84091 15.75H20.5736C20.9834 15.75 21.3802 15.6062 21.6949 15.3436C22.0095 15.081 22.222 14.7163 22.2954 14.313L23.625 7H5.25" stroke="#130F26" stroke-width="2" stroke-linecap="round" stroke-linejoin="round"/>
</svg>
