<svg width="23" height="23" viewBox="0 0 23 23" fill="none" xmlns="http://www.w3.org/2000/svg">
<path d="M11.5 23C9.76128 23.0048 8.04454 22.6114 6.48145 21.8499C5.90939 21.5717 5.36128 21.2466 4.84272 20.8782L4.68517 20.7632C3.25897 19.7105 2.09295 18.345 1.2766 16.7715C0.432207 15.143 -0.00574157 13.3344 5.68358e-05 11.5C5.68358e-05 5.14871 5.14879 0 11.5 0C17.8512 0 22.9999 5.14871 22.9999 11.5C23.0057 13.3335 22.5681 15.1413 21.7246 16.7692C20.9093 18.3418 19.7449 19.7068 18.3206 20.7597C17.7833 21.153 17.2131 21.4993 16.6163 21.7947L16.5243 21.8407C14.9602 22.6063 13.2414 23.0028 11.5 23ZM11.5 17.2499C9.77672 17.2466 8.19685 18.2091 7.40949 19.742C9.98707 21.0187 13.0129 21.0187 15.5905 19.742V19.7362C14.8022 18.205 13.2222 17.2447 11.5 17.2499ZM11.5 14.9499C13.991 14.9532 16.2879 16.2956 17.5133 18.4643L17.5305 18.4494L17.5466 18.4356L17.5271 18.4528L17.5156 18.462C20.4239 15.9494 21.4638 11.8936 20.1234 8.29159C18.7829 4.68954 15.3445 2.30035 11.5012 2.30035C7.65778 2.30035 4.21942 4.68954 2.87894 8.29159C1.53847 11.8936 2.57839 15.9494 5.48671 18.462C6.7129 16.2943 9.00954 14.953 11.5 14.9499ZM11.5 13.7999C8.95952 13.7999 6.90005 11.7405 6.90005 9.19996C6.90005 6.65946 8.95952 4.59998 11.5 4.59998C14.0405 4.59998 16.1 6.65946 16.1 9.19996C16.1 10.42 15.6153 11.59 14.7527 12.4526C13.89 13.3153 12.72 13.7999 11.5 13.7999ZM11.5 6.89997C10.2298 6.89997 9.20002 7.92971 9.20002 9.19996C9.20002 10.4702 10.2298 11.5 11.5 11.5C12.7702 11.5 13.8 10.4702 13.8 9.19996C13.8 7.92971 12.7702 6.89997 11.5 6.89997Z" fill="#130F26"/>
</svg>
